<svg id="Capa_1" enable-background="new 0 0 512 512" height="512" viewBox="0 0 512 512" width="512" xmlns="http://www.w3.org/2000/svg"><g><g><path d="m408.532 504.5h-320.064c-16.569 0-30-13.431-30-30v-437c0-16.569 13.431-30 30-30h320.064c24.853 0 45 20.147 45 45v407c0 24.853-20.147 45-45 45z" fill="#b5adb6"/><g fill="#a79ba7"><path d="m408.532 7.5h-30c24.853 0 45 20.147 45 45v407c0 24.853-20.147 45-45 45h30c24.853 0 45-20.147 45-45v-407c0-24.853-20.147-45-45-45z"/><path d="m75.719 88.5h-35.219c-9.941 0-18-8.059-18-18 0-9.941 8.059-18 18-18h35.219c9.941 0 18 8.059 18 18 0 9.941-8.059 18-18 18z"/><path d="m75.719 212.167h-35.219c-9.941 0-18-8.059-18-18 0-9.941 8.059-18 18-18h35.219c9.941 0 18 8.059 18 18 0 9.941-8.059 18-18 18z"/><path d="m75.719 335.833h-35.219c-9.941 0-18-8.059-18-18 0-9.941 8.059-18 18-18h35.219c9.941 0 18 8.059 18 18 0 9.941-8.059 18-18 18z"/><path d="m75.719 459.5h-35.219c-9.941 0-18-8.059-18-18 0-9.941 8.059-18 18-18h35.219c9.941 0 18 8.059 18 18 0 9.941-8.059 18-18 18z"/></g><g><path d="m412.108 390.135c-18.599 30.167-54.262 45.359-88.854 37.652-38.882-8.662-81.16-32.232-117.538-68.61-36.383-36.383-59.952-78.661-68.614-117.545-7.706-34.592 7.485-70.255 37.652-88.855 6.763-4.169 15.504-3.147 21.121 2.471l41.722 41.722c7.827 7.827 6.296 20.908-3.125 26.717l-17.048 10.513c-7.155 4.411-10.068 13.357-6.857 21.125 6.97 16.858 19.566 40.189 42.109 61.878 20.164 19.4 41.182 30.649 56.955 37.155 7.744 3.194 16.662.248 21.058-6.882l10.515-17.055c5.809-9.422 18.891-10.952 26.717-3.125l41.716 41.716c5.618 5.618 6.64 14.359 2.471 21.121z" fill="#f3f0f3"/><g fill="#cbc4cc"><path d="m412.108 390.135.001-.002c4.169-6.763 3.147-15.504-2.471-21.121l-41.716-41.716c-7.827-7.827-20.908-6.296-26.717 3.125l-2.282 3.702-.001.007 65.969 65.969c2.617-3.111 5.038-6.43 7.217-9.964z"/><path d="m230.768 225.973 3.705-2.284c9.422-5.809 10.952-18.891 3.125-26.717l-41.722-41.722c-5.618-5.618-14.359-6.64-21.121-2.471-3.534 2.179-6.854 4.601-9.965 7.219l65.976 65.976h.002z"/></g></g><path d="m462.199 107.103h-8.666v-54.603h8.666c15.078 0 27.301 12.223 27.301 27.301 0 15.079-12.223 27.302-27.301 27.302z" fill="#fd8087"/><path d="m462.199 195.753h-8.666v-54.603h8.666c15.078 0 27.301 12.223 27.301 27.301 0 15.079-12.223 27.302-27.301 27.302z" fill="#fee97d"/><path d="m462.199 284.404h-8.666v-54.603h8.666c15.078 0 27.301 12.223 27.301 27.301 0 15.079-12.223 27.302-27.301 27.302z" fill="#7acaa6"/><path d="m462.199 373.055h-8.666v-54.603h8.666c15.078 0 27.301 12.223 27.301 27.301 0 15.079-12.223 27.302-27.301 27.302z" fill="#82aee3"/><path d="m472.488 320.464c1.294 3.176 2.012 6.648 2.012 10.289 0 12.897-8.945 23.698-20.968 26.555v15.747h8.667c15.078 0 27.301-12.223 27.301-27.301 0-11.438-7.036-21.226-17.012-25.29z" fill="#528fd8"/><path d="m472.488 231.814c1.294 3.176 2.012 6.648 2.012 10.289 0 12.897-8.945 23.698-20.968 26.555v15.747h8.667c15.078 0 27.301-12.223 27.301-27.301 0-11.438-7.036-21.227-17.012-25.29z" fill="#57be92"/><path d="m472.488 143.163c1.294 3.176 2.012 6.648 2.012 10.289 0 12.897-8.945 23.698-20.968 26.555v15.747h8.667c15.078 0 27.301-12.223 27.301-27.301 0-11.438-7.036-21.227-17.012-25.29z" fill="#fedf30"/><path d="m472.488 54.512c1.294 3.176 2.012 6.648 2.012 10.289 0 12.897-8.945 23.698-20.968 26.555v15.747h8.667c15.078 0 27.301-12.223 27.301-27.301 0-11.438-7.036-21.226-17.012-25.29z" fill="#fe646f"/><path d="m462.199 461.705h-8.666v-54.603h8.666c15.078 0 27.301 12.223 27.301 27.301 0 15.079-12.223 27.302-27.301 27.302z" fill="#8795de"/><path d="m472.488 409.115c1.294 3.176 2.012 6.648 2.012 10.289 0 12.897-8.945 23.697-20.968 26.555v15.746h8.667c15.078 0 27.301-12.223 27.301-27.301 0-11.437-7.036-21.226-17.012-25.289z" fill="#6c7fd8"/><path d="m355.741 88.5h-199.482c-4.971 0-9-4.029-9-9v-18c0-4.971 4.029-9 9-9h199.482c4.971 0 9 4.029 9 9v18c0 4.971-4.029 9-9 9z" fill="#f3f0f3"/></g><path d="m497 168.452c0-19.647-16.357-35.42-35.97-34.801v-19.048c19.491.442 35.97-15.04 35.97-34.801 0-19.903-16.711-35.662-36.514-34.802-3.651-25.407-25.554-45-51.956-45h-39.825c-4.142 0-7.5 3.358-7.5 7.5s3.358 7.5 7.5 7.5h39.825c20.678 0 37.5 16.822 37.5 37.5v407c0 20.678-16.822 37.5-37.5 37.5h-320.06c-12.407 0-22.5-10.093-22.5-22.5v-7.5h9.749c14.061 0 25.5-11.439 25.5-25.5s-11.439-25.5-25.5-25.5h-9.749v-72.667h9.749c14.061 0 25.5-11.439 25.5-25.5s-11.439-25.5-25.5-25.5h-9.749v-72.667h9.749c14.061 0 25.5-11.439 25.5-25.5s-11.439-25.5-25.5-25.5h-9.749v-72.666h9.749c14.061 0 25.5-11.439 25.5-25.5s-11.439-25.5-25.5-25.5h-9.749v-7.5c0-12.407 10.093-22.5 22.5-22.5h250.235c4.142 0 7.5-3.358 7.5-7.5s-3.358-7.5-7.5-7.5h-250.235c-20.678 0-37.5 16.822-37.5 37.5v7.5h-10.47c-14.061 0-25.5 11.439-25.5 25.5s11.439 25.5 25.5 25.5h10.47v72.667h-10.47c-14.061 0-25.5 11.439-25.5 25.5s11.439 25.5 25.5 25.5h10.47v72.667h-10.47c-14.061 0-25.5 11.439-25.5 25.5s11.439 25.5 25.5 25.5h10.47v72.666h-10.47c-14.061 0-25.5 11.439-25.5 25.5s11.439 25.5 25.5 25.5h10.47v7.5c0 20.678 16.822 37.5 37.5 37.5h320.06c25.632 0 47.018-18.469 51.586-42.794 19.723.715 36.884-14.551 36.884-34.802 0-19.647-16.357-35.421-35.97-34.802v-19.048c19.491.434 35.97-15.035 35.97-34.801 0-19.646-16.357-35.42-35.97-34.801v-19.048c19.491.437 35.97-15.036 35.97-34.802 0-19.647-16.357-35.42-35.97-34.801v-19.048c19.491.44 35.97-15.038 35.97-34.801zm-35.97-108.452c11.207-.79 20.97 8.573 20.97 19.801 0 11.225-9.643 20.507-20.97 19.801zm0 88.651c11.207-.793 20.97 8.575 20.97 19.801 0 11.223-9.643 20.508-20.97 19.801zm-420.53-67.651c-5.79 0-10.5-4.71-10.5-10.5s4.71-10.5 10.5-10.5h35.219c5.79 0 10.5 4.71 10.5 10.5s-4.71 10.5-10.5 10.5zm0 123.667c-5.79 0-10.5-4.71-10.5-10.5s4.71-10.5 10.5-10.5h17.902c.023 0 .045.003.068.003s.045-.003.068-.003h17.181c5.79 0 10.5 4.71 10.5 10.5s-4.71 10.5-10.5 10.5zm0 123.666c-5.79 0-10.5-4.71-10.5-10.5s4.71-10.5 10.5-10.5h35.219c5.79 0 10.5 4.71 10.5 10.5s-4.71 10.5-10.5 10.5h-17.181c-.023 0-.045-.003-.068-.003s-.045.003-.068.003zm0 123.667c-5.79 0-10.5-4.71-10.5-10.5s4.71-10.5 10.5-10.5h35.219c5.79 0 10.5 4.71 10.5 10.5s-4.71 10.5-10.5 10.5zm441.5-17.596c0 11.217-9.643 20.513-20.97 19.801v-39.603c11.254-.719 20.97 8.524 20.97 19.802zm0-88.651c0 11.219-9.643 20.511-20.97 19.801v-39.603c11.207-.797 20.97 8.58 20.97 19.802zm0-88.65c0 11.222-9.643 20.51-20.97 19.802v-39.603c11.207-.796 20.97 8.576 20.97 19.801zm-126.259-212.103h-199.482c-9.098 0-16.5 7.402-16.5 16.5v18c0 9.098 7.402 16.5 16.5 16.5h199.482c9.098 0 16.5-7.402 16.5-16.5v-18c0-9.098-7.402-16.5-16.5-16.5zm1.5 34.5c0 .827-.673 1.5-1.5 1.5h-199.482c-.827 0-1.5-.673-1.5-1.5v-18c0-.827.673-1.5 1.5-1.5h199.482c.827 0 1.5.673 1.5 1.5zm-32.357 340.967c-31.414-6.998-63.646-23.542-93.21-47.843-3.199-2.63-7.925-2.167-10.556 1.032-2.63 3.2-2.168 7.926 1.032 10.556 31.375 25.789 65.772 43.389 99.473 50.896 6.538 1.457 13.108 2.163 19.62 2.162 31.015.14 60.954-16.529 77.251-43.201 6.02-9.765 4.56-22.249-3.552-30.36l-41.716-41.716c-5.362-5.362-12.756-7.936-20.29-7.051-7.532.881-14.135 5.088-18.115 11.544l-10.515 17.055c-2.495 4.046-7.463 5.68-11.814 3.886-20.426-8.426-38.801-20.412-54.615-35.627-17.457-16.795-31.042-36.76-40.378-59.339-1.813-4.384-.189-9.378 3.861-11.875l17.049-10.511c6.455-3.98 10.663-10.583 11.544-18.115s-1.688-14.928-7.051-20.291l-41.722-41.722c-8.11-8.111-20.596-9.571-30.361-3.552-3.759 2.318-7.293 4.889-10.611 7.663-.115.089-.228.183-.339.28-25.517 21.54-37.481 55.731-30.086 88.927 9.35 41.97 34.434 85.02 70.631 121.217 2.929 2.929 7.678 2.929 10.606 0 2.929-2.929 2.929-7.678 0-10.606-34.208-34.208-57.859-74.649-66.597-113.873-5.667-25.442 2.299-51.593 20.147-69.619l54.185 54.185-5.267 3.247c-10.348 6.38-14.491 19.154-9.851 30.375 10.132 24.504 24.882 46.177 43.84 64.417 17.174 16.523 37.124 29.539 59.295 38.684 11.181 4.613 23.928.459 30.302-9.879l3.251-5.273 54.18 54.18c-18.026 17.849-44.176 25.817-69.621 20.147zm-148.705-259.686c.824-.554 1.661-1.093 2.511-1.617 3.821-2.356 8.707-1.785 11.882 1.39l41.723 41.722c2.099 2.099 3.104 4.993 2.759 7.941-.284 2.428-1.462 4.599-3.276 6.163zm172.336 172.336c1.564-1.815 3.735-2.993 6.164-3.277 2.947-.346 5.842.661 7.94 2.759l41.716 41.716c3.164 3.164 3.742 8.028 1.413 11.844-.008.013-.017.027-.025.04-.524.85-1.063 1.686-1.616 2.509z"/></g></svg>